<!-- icon666.com - MILLIONS vector ICONS FREE --><svg id="Capa_1" enable-background="new 0 0 512.001 512.001" viewBox="0 0 512.001 512.001" xmlns="http://www.w3.org/2000/svg"><g><g><path d="m408.306 327.719h-84.21c-11.046 0-20-8.954-20-20v-183.985c0-4.427 3.589-8.016 8.016-8.016h96.194c4.427 0 8.016 3.589 8.016 8.016v195.968c.001 4.428-3.588 8.017-8.016 8.017z" fill="#ffeac6"></path><path d="m344.177 315.47c-8.854 0-16.032-7.178-16.032-16.032v-183.72h-16.032c-4.427 0-8.016 3.589-8.016 8.016v208.419c0 4.427 3.589 8.016 8.016 8.016h96.194c4.427 0 8.016-3.589 8.016-8.016v-16.683z" fill="#fcdbb2"></path><path d="m247.984 171.831h-160.323c-4.427 0-8.016 3.589-8.016 8.016v110.731l66.714 37.357 109.641-11.814v-136.274c0-4.427-3.589-8.016-8.016-8.016z" fill="#f4aa73"></path><path d="m175.8 316.121c-2.466 0-4.838-1.19-6.341-3.178-6.067-8.047-15.664-12.854-25.684-12.854h-32.065c-4.423 0-8.016-3.593-8.016-8.016v-120.242h-16.033c-4.427 0-8.016 3.589-8.016 8.016v176.355h176.355v-40.081z" fill="#e29a6c"></path><path d="m264.016 340.17h-113.698c.936-2.634 1.525-5.435 1.469-8.405-.08-4.266-3.746-7.627-8.012-7.627h-66.915c-8.711 0-17.303 2.028-25.095 5.924l-8.368 4.184c-7.792 3.896-16.383 5.924-25.095 5.924-5.966 0-10.802 4.836-10.802 10.802v45.311h108.643c18.352 0 36.635-2.251 54.439-6.702l89.306-22.327c7.137-1.784 12.144-8.197 12.144-15.554v-3.514c0-4.427-3.589-8.016-8.016-8.016z" fill="#ffeac6"></path><path d="m151.79 171.831v48.097c0 4.427 3.589 8.016 8.016 8.016h16.032c4.427 0 8.016-3.589 8.016-8.016v-48.097z" fill="#a46a5a"></path><g fill="#fbbd80"><path d="m312.113 243.976h-8.016c-8.854 0-16.032-7.178-16.032-16.032 0-8.854 7.178-16.032 16.032-16.032h8.016c8.854 0 16.032 7.178 16.032 16.032 0 8.854-7.178 16.032-16.032 16.032z"></path><path d="m312.113 276.041h-8.016c-8.854 0-16.032-7.178-16.032-16.032 0-8.854 7.178-16.032 16.032-16.032h8.016c8.854 0 16.032 7.178 16.032 16.032 0 8.854-7.178 16.032-16.032 16.032z"></path><path d="m312.113 308.105h-8.016c-8.854 0-16.032-7.178-16.032-16.032 0-8.854 7.178-16.032 16.032-16.032h8.016c8.854 0 16.032 7.178 16.032 16.032 0 8.854-7.178 16.032-16.032 16.032z"></path><path d="m312.113 211.912h-8.016c-8.854 0-16.032-7.178-16.032-16.032 0-8.854 7.178-16.032 16.032-16.032h8.016c8.854 0 16.032 7.178 16.032 16.032 0 8.854-7.178 16.032-16.032 16.032z"></path><path d="m461.325 187.241c-8.479-4.845-18.075-7.393-27.84-7.393h-57.243c-4.489 0-8.049 3.718-8.015 8.207.102 13.194 10.829 23.857 24.047 23.857h8.016c8.854 0 16.032 7.178 16.032 16.032v72.145h88.178v-88.177z"></path></g><path d="m360.21 251.992c-8.854 0-16.032-7.178-16.032-16.032v-16.032c0-8.854 7.178-16.032 16.032-16.032 8.854 0 16.032 7.178 16.032 16.032v16.032c0 8.855-7.178 16.032-16.032 16.032z" fill="#b8eb7c"></path><path d="m440.371 300.089v-72.145c0-22.099-17.982-40.081-40.081-40.081h-32.027c0 .067-.037.124-.036.191.103 13.194 10.829 23.857 24.047 23.857h8.016c8.854 0 16.032 7.178 16.032 16.032v72.145h24.049z" fill="#f4aa73"></path></g><g><path d="m7.5 347.67h10.802c9.825 0 19.662-2.322 28.449-6.716l8.369-4.184c6.715-3.358 14.233-5.132 21.74-5.132h66.915c.285 0 .516.231.516.516 0 9.125-7.424 16.548-16.549 16.548h-40.081c-4.142 0-7.5 3.358-7.5 7.5s3.358 7.5 7.5 7.5h40.081c17.396 0 31.549-14.152 31.549-31.548 0-8.556-6.96-15.516-15.516-15.516h-66.916c-9.824 0-19.661 2.322-28.448 6.715l-8.369 4.185c-6.715 3.357-14.232 5.132-21.74 5.132h-10.802c-4.142 0-7.5 3.358-7.5 7.5s3.358 7.5 7.5 7.5z"></path><path d="m264.017 332.67h-80.162c-4.142 0-7.5 3.358-7.5 7.5s3.358 7.5 7.5 7.5h80.162c.284 0 .516.231.516.516v3.515c0 3.922-2.657 7.326-6.463 8.278l-89.308 22.327c-17.192 4.298-34.896 6.478-52.618 6.478h-108.644c-4.142 0-7.5 3.358-7.5 7.5s3.358 7.5 7.5 7.5h108.643c18.948 0 37.875-2.33 56.256-6.926l89.309-22.327c10.495-2.625 17.824-12.012 17.824-22.83v-3.515c0-8.556-6.96-15.516-15.515-15.516z"></path><path d="m79.645 299.573c4.142 0 7.5-3.358 7.5-7.5v-112.226c0-.285.231-.516.516-.516h56.629v40.597c0 8.556 6.96 15.516 15.516 15.516h16.032c8.556 0 15.516-6.96 15.516-15.516v-40.597h56.629c.285 0 .516.231.516.516v128.258c0 4.142 3.358 7.5 7.5 7.5 4.143 0 7.5-3.358 7.5-7.5v-128.258c0-8.556-6.96-15.516-15.516-15.516h-160.322c-8.556 0-15.516 6.96-15.516 15.516v112.226c0 4.142 3.358 7.5 7.5 7.5zm96.71-79.645c0 .285-.231.516-.516.516h-16.032c-.285 0-.516-.231-.516-.516v-40.597h17.064z"></path><path d="m223.936 300.605h-32.064c-4.142 0-7.5 3.358-7.5 7.5s3.358 7.5 7.5 7.5h32.064c4.142 0 7.5-3.358 7.5-7.5s-3.358-7.5-7.5-7.5z"></path><path d="m223.936 268.541h-48.097c-4.142 0-7.5 3.358-7.5 7.5s3.358 7.5 7.5 7.5h48.097c4.142 0 7.5-3.358 7.5-7.5s-3.358-7.5-7.5-7.5z"></path><path d="m504.5 292.589h-80.678v-64.646c0-12.976-10.557-23.532-23.532-23.532h-8.016c-9.125 0-16.549-7.423-16.549-16.548 0-.285.231-.516.517-.516h57.243c8.446 0 16.786 2.215 24.119 6.405l43.175 24.671c3.597 2.056 8.178.806 10.232-2.791s.806-8.178-2.791-10.233l-43.174-24.671c-9.596-5.483-20.51-8.382-31.562-8.382h-9.663v-48.613c0-8.556-6.96-15.516-15.516-15.516h-96.193c-8.556 0-15.517 6.96-15.517 15.516v49.845c-9.308 3.139-16.032 11.946-16.032 22.3 0 6.19 2.407 11.827 6.328 16.032-3.922 4.206-6.328 9.842-6.328 16.032s2.407 11.827 6.328 16.032c-3.922 4.206-6.328 9.842-6.328 16.033 0 6.19 2.407 11.827 6.328 16.032-3.922 4.206-6.328 9.842-6.328 16.032 0 12.976 10.557 23.532 23.532 23.532h8.017c12.976 0 23.532-10.557 23.532-23.532 0-6.19-2.406-11.827-6.328-16.032 3.922-4.206 6.328-9.842 6.328-16.033 0-6.19-2.406-11.827-6.328-16.032 3.922-4.206 6.328-9.842 6.328-16.032s-2.406-11.827-6.328-16.032c3.922-4.206 6.328-9.842 6.328-16.032 0-12.976-10.557-23.532-23.532-23.532h-.517v-48.613c0-.285.231-.516.517-.516h96.193c.284 0 .516.231.516.516v48.613h-32.58c-8.556 0-15.517 6.96-15.517 15.516 0 2.982.425 5.865 1.202 8.602-.568-.041-1.139-.069-1.717-.069-12.976 0-23.532 10.557-23.532 23.532v16.032c0 12.976 10.557 23.532 23.532 23.532s23.532-10.557 23.532-23.532v-16.032c0-.578-.028-1.15-.069-1.718 2.736.777 5.62 1.202 8.602 1.202h8.016c4.705 0 8.532 3.828 8.532 8.532v104.21c0 .285-.231.516-.516.516h-88.178c-4.143 0-7.5 3.358-7.5 7.5s3.357 7.5 7.5 7.5h88.178c8.556 0 15.516-6.96 15.516-15.516v-24.564h80.678c4.143 0 7.5-3.358 7.5-7.5s-3.357-7.5-7.5-7.5zm-183.854-64.645c0 4.705-3.827 8.532-8.532 8.532h-8.017c-4.705 0-8.532-3.828-8.532-8.532s3.827-8.532 8.532-8.532h8.017c4.704 0 8.532 3.827 8.532 8.532zm0 32.065c0 4.705-3.827 8.532-8.532 8.532h-8.017c-4.705 0-8.532-3.828-8.532-8.533s3.827-8.532 8.532-8.532h8.017c4.704 0 8.532 3.828 8.532 8.533zm-8.533 40.596h-8.017c-4.705 0-8.532-3.828-8.532-8.532s3.827-8.532 8.532-8.532h8.017c4.705 0 8.532 3.828 8.532 8.532s-3.827 8.532-8.532 8.532zm8.533-104.726c0 4.705-3.827 8.532-8.532 8.532h-8.017c-4.705 0-8.532-3.828-8.532-8.532s3.827-8.532 8.532-8.532h8.017c4.704 0 8.532 3.828 8.532 8.532zm48.096 40.081c0 4.705-3.827 8.532-8.532 8.532s-8.532-3.828-8.532-8.532v-16.032c0-4.705 3.827-8.532 8.532-8.532s8.532 3.828 8.532 8.532z"></path><path d="m351.678 147.783c0-4.142-3.357-7.5-7.5-7.5h-8.017c-4.143 0-7.5 3.358-7.5 7.5s3.357 7.5 7.5 7.5h8.017c4.142 0 7.5-3.358 7.5-7.5z"></path><path d="m384.258 155.283c4.143 0 7.5-3.358 7.5-7.5s-3.357-7.5-7.5-7.5h-8.016c-4.143 0-7.5 3.358-7.5 7.5s3.357 7.5 7.5 7.5z"></path><path d="m384.258 315.605c4.143 0 7.5-3.358 7.5-7.5s-3.357-7.5-7.5-7.5h-8.016c-4.143 0-7.5 3.358-7.5 7.5s3.357 7.5 7.5 7.5z"></path></g></g></svg>