<svg version="1.2" xmlns="http://www.w3.org/2000/svg" viewBox="0 0 656 459" width="656" height="459">
	<title>synchronize-svg</title>
	<style>
		.s0 { fill: #ffffff } 
		.s1 { fill: #3f3d56 } 
		.s2 { fill: #2271ff } 
		.s3 { fill: #2f2e41 } 
		.s4 { fill: #ffb6b6 } 
		.s5 { opacity: .1;fill: #000000 } 
		.s6 { fill: #e6e6e6 } 
	</style>
	<path id="Hình dạng 1" class="s0" d="m165 225v139l1 9 1 8 3 6 2 5 3 5 3 5 4 5 4 5 5 5 7 6 7 3 7 4 9 3 8 1 7 1h18 150l10-1 9-3 6-4 8-4 9-8 10-12 10-17 5-13 1-12v-140l-1-10-2-6-30-43-95-12-35 2-22 3-46 9-19 6-13 11-20 14-7 16-11 11z"/>
	<path id="Layer" class="s1" d="m0 434.3h656v2h-656z"/>
	<g id="Layer">
		<path id="Layer" fill-rule="evenodd" class="s1" d="m472 210.8q1 6.2 1 12.8v135.9q0 6.5-1 12.7c-4.9 29-26 52.5-53.6 60.9-7.1 2.1-14.5 3.3-22.3 3.3h-156c-7.7 0-15.2-1.2-22.2-3.3-27.7-8.3-48.8-31.8-53.6-60.8q-1.1-6.3-1.1-12.8v-135.9q0-6.6 1.1-12.8c6.1-36.4 37.7-64.2 75.8-64.2h156c38.1 0 69.8 27.8 75.9 64.2zm-62.7 222.3c35-6.2-38.7-60.2 61.6-73.6v-135.9c0-41.3-33.5-74.8-74.8-74.8-127.4 0-230.8 38.1-230.8 165.6v45.1c0 36.8 26.6 67.4 61.7 73.6q6.4 1.2 13.1 1.2h156q6.8 0 13.2-1.2 0 0 0 0z"/>
		<path id="Layer" class="s2" d="m349.2 249.2l6 39 88-12-8.5-45.6-85.5 18.6z"/>
		<path id="Layer" class="s3" d="m381.8 30.3h36.4v37.7h-36.4z"/>
		<path id="Layer" class="s4" d="m385.2 70.2l9-27h17.5l0.9 27h-27.4z"/>
		<path id="Layer" class="s5" d="m385.2 70.2l9-27h17.5l0.9 27h-27.4z"/>
		<path id="Layer" class="s4" d="m394.7 310.7l-1 104-1 8v11.5l15 1.5 1-23c0 0 16-45 12-80-4-35-2-25-2-25z"/>
		<path id="Layer" class="s4" d="m404.2 318.9l-36.9 97.2-2 7.8-4.2 10.7-14.5-4 7.4-21.8c0 0 1.5-47.8 18-78.9 16.4-31.2 10.9-22.6 10.9-22.6l21.3 11.6z"/>
		<path id="Layer" class="s3" d="m385.2 67.2l-27 12 17.2 89-2.7 127.8-18 38c0 0-3 21.7 28 7.7 31-14 66-18 66-18l-8.5-58.5-7.5-153.5 1-34-22-14c0 0-26.5 3.5-26.5 3.5z"/>
		<path id="Layer" class="s6" d="m370.1 335.3l-29.9-50.1 34.2-117-16.2-89 28.5-12.2c0 0 14.7 14.4 14.7 26.2 0 11.8-31.3 242.1-31.3 242.1q0 0 0 0z"/>
		<path id="Layer" class="s6" d="m435.1 325.3l-27.2-233.6c-0.3-2.9 0.2-5.9 1.5-8.6l7.8-16.1 30.5 8.7-12.3 95.5 32.8 94z"/>
		<path id="Layer" class="s3" d="m410.7 433.7c0 0-19-11-21-5-2 6-3 11-3 11 0 0-5 19 10 19 15 0 14-8.7 14-8.7z"/>
		<path id="Layer" class="s3" d="m344.5 427.6c0 0 21.7-3.3 21.4 3-0.3 6.3-1.2 11.3-1.2 11.3 0 0-2.2 19.5-16.2 14.1-14-5.5-9.9-13.2-9.9-13.2l5.9-15.2q0 0 0 0z"/>
		<path id="Layer" class="s4" d="m404.1 57.9c-13.7 0-24.9-11.1-24.9-24.9 0-13.7 11.2-24.8 24.9-24.8 13.8 0 24.9 11.1 24.9 24.8 0 13.8-11.1 24.9-24.9 24.9z"/>
		<path id="Layer" class="s3" d="m424 10.9c-1.2-6.2-7.5-10.3-13.7-10.8-6.2-0.5-12.3 1.8-17.9 4.6-3.8 1.8-7.5 3.9-10.6 6.8-3.1 2.9-5.5 6.7-6 10.9-0.2 1.5-0.2 3-0.8 4.4-0.8 1.7-2.4 2.9-3.4 4.5-1.7 2.8-0.9 7 1.8 8.9-3.4 1.5-6.9 3-9.5 5.6-2.6 2.7-4.1 6.7-2.7 10.2 0.5 1.2 1.4 2.2 1.8 3.5 0.8 2.3 0 5-1.4 7-1.5 2-3.5 3.5-5.5 5 5.2 1 10.4 1.8 15.7 1.3 5.2-0.5 10.5-2.3 14.2-6 3.8-3.6 5.9-9.2 4.6-14.3-1.1-3.9-4-7.3-4-11.3 0-3.1 1.8-5.9 3.4-8.5q5.5-8.6 11.1-17.1c0.6-1 1.3-2.1 2.4-2.7 1.7-1 4-0.6 5.9 0.3 1.9 0.9 3.6 2.1 5.6 2.7 4.1 1.1 8.8-1.5 10.1-5.5"/>
		<path id="Layer" class="s3" d="m409.3 61.4c-2.1 2-5.1 2.7-7.8 3.5-2.8 0.8-5.8 2.1-7 4.7-1.2 2.5-0.3 5.8 1.7 7.7 2 2 4.9 2.9 7.8 2.8 2.8 0 5.6-0.8 8.2-1.8 7.3-2.6 14.2-6.3 20.4-10.9-4-1.1-6.7-5.8-5.5-9.9 0.9-3.2 3.8-5.5 5.7-8.3 3.4-4.8 4-11.1 2.8-16.8-1.1-5.8-3.7-11.1-6.3-16.4-0.8-1.6-1.6-3.3-2.9-4.6-1.3-1.4-3.1-2.3-4.9-2.1-3.1 0.3-5 3.6-5.1 6.7 0 3.1 1.4 5.9 2.4 8.8 1 3 1.8 6.2 1.5 9.3-0.3 2.7-1.2 5.2-2.8 7.4-1.2 1.7-2.7 3-4 4.6-1 1.2-1.9 2.6-2.2 4.2-0.4 2.8 1.2 5.7 0.8 8.5-0.5 3.1-3.7 5.4-6.7 4.9"/>
		<g id="Layer">
			<path id="Layer" class="s2" d="m333.2 408.6c-47 0-85-38-85-85 0-47 38-85 85-85 47.1 0 85 38 85 85 0 47-37.9 85-85 85z"/>
			<g id="Layer">
				<path id="Layer" class="s0" d="m384.2 316.8h-10.6c-1.6-9.7-6.7-18.4-14.3-24.7-17.4-14.4-43.2-11.9-57.6 5.5q-0.1 0.1-0.2 0.2c-1.1 1.5-0.8 3.6 0.7 4.8 1.4 1.1 3.6 0.8 4.7-0.7 6.3-7.5 15.8-12.4 26.3-12.4 16.3 0 30.2 11.4 33.5 27.3h-9.3c-0.4 0-0.8 0.2-1.1 0.4-0.8 0.6-0.9 1.7-0.3 2.4l13.5 16.1q0.1 0.1 0.2 0.2c0.7 0.6 1.8 0.5 2.4-0.2l13.4-16.1c0.2-0.3 0.4-0.7 0.4-1.1 0-0.9-0.8-1.7-1.7-1.7q0 0 0 0z"/>
				<path id="Layer" class="s0" d="m364.3 344.7c-1.4-1.1-3.6-0.8-4.7 0.7-5 6-11.9 10.1-19.5 11.7-18.5 3.7-36.5-8.2-40.3-26.6h9.3c1 0 1.7-0.8 1.7-1.7 0-0.4-0.1-0.8-0.3-1.1l-13.5-16.1c-0.6-0.8-1.6-0.9-2.4-0.2q-0.1 0.1-0.2 0.2l-13.4 16.1c-0.6 0.7-0.5 1.8 0.2 2.4 0.3 0.2 0.7 0.4 1.1 0.4h10.6c1.6 9.7 6.7 18.4 14.3 24.7 17.4 14.4 43.2 11.9 57.6-5.5q0.1-0.1 0.2-0.2c1.1-1.5 0.8-3.6-0.7-4.8q0 0 0 0z"/>
			</g>
		</g>
		<path id="uuid-da16df1e-5659-4232-96f6-61e8c639a9ec-2223" class="s4" d="m357 237.2c-1 7.4-5.7 12.8-10.4 12.1-4.7-0.6-7.6-7.1-6.6-14.5 0.4-2.9 1.5-5.7 3.1-8.2l4.8-31.2 14.6 2.6-6.3 30.4c1 2.9 1.2 5.9 0.8 8.8q0 0 0 0z"/>
		<path id="Layer" class="s6" d="m369.7 77.7c0 0-15-5-17 13-2 18-4 40-4 40 0 0-9 21-5 32 4 11 11 3.3 4 12.7-7 9.3-6.1 40-6.1 40l22.6-1.1c0 0 12.5-82.6 12.5-84.6 0-2-7-52-7-52q0 0 0 0z"/>
		<g id="Layer">
			<path id="uuid-6bf35aa9-e432-4b51-af77-8f4eb19e6e42-2224" class="s4" d="m467.2 233.8c0.2 7.5-3.4 13.7-8.1 13.8-4.7 0.2-8.8-5.7-9.1-13.1-0.1-3 0.4-5.9 1.7-8.6l-0.8-31.6h14.8l-0.8 31.1c1.4 2.6 2.2 5.5 2.3 8.4z"/>
			<path id="Layer" class="s6" d="m444.1 77.3c0 0 15.1-4.7 16.7 13.4 1.7 18 3.3 51 3.3 51 0 0 8.6 21.2 4.4 32.1-4.1 10.9-11 3.1-4.2 12.6 6.9 9.4 4.4 36.1 4.4 36.1l-22.5-1.5c0 0-10.1-78.8-10.1-80.8 0.1-2 8-62.9 8-62.9z"/>
		</g>
	</g>
</svg>